<svg width="48" height="48" viewBox="0 0 48 48" fill="none" xmlns="http://www.w3.org/2000/svg">
<rect width="48" height="48" rx="8" fill="#A7A0F8"/>
<path d="M21.3333 14.0001L21.3334 13.24C21.4514 13.1479 21.5808 13.0692 21.7479 12.9967C22.1211 12.8348 22.78 12.6667 24.0001 12.6667C25.2201 12.6667 25.879 12.8348 26.2522 12.9967C26.4193 13.0692 26.5487 13.1479 26.6667 13.24V14H29.3333V12.1307L28.9624 11.7438C28.6391 11.4067 28.1567 10.9162 27.3136 10.5504C26.4982 10.1966 25.4466 10 24.0001 10C22.5535 10 21.502 10.1966 20.6865 10.5504C19.8434 10.9162 19.361 11.4066 19.0377 11.7439L18.6668 12.1307L18.6667 13.9999L21.3333 14.0001Z" fill="#FAFAFA"/>
<path fill-rule="evenodd" clip-rule="evenodd" d="M19.6783 16.6667H28.3217C29.395 16.6666 30.2808 16.6666 31.0024 16.7256C31.7519 16.7868 32.4408 16.9182 33.0879 17.248C34.0915 17.7593 34.9074 18.5752 35.4187 19.5787C35.7484 20.2258 35.8798 20.9148 35.9411 21.6642C36 22.3858 36 23.2716 36 24.3449V30.3218C36 31.395 36 32.2808 35.9411 33.0024C35.8798 33.7519 35.7484 34.4408 35.4187 35.0879C34.9074 36.0915 34.0915 36.9074 33.0879 37.4187C32.4408 37.7484 31.7519 37.8798 31.0024 37.9411C30.2809 38 29.3951 38 28.3219 38H19.6783C18.6051 38 17.7191 38 16.9976 37.9411C16.2481 37.8798 15.5592 37.7484 14.9121 37.4187C13.9085 36.9074 13.0926 36.0915 12.5813 35.0879C12.2516 34.4408 12.1202 33.7519 12.0589 33.0024C12 32.2809 12 31.395 12 30.3218V24.3449C12 23.2717 12 22.3858 12.0589 21.6642C12.1202 20.9148 12.2516 20.2258 12.5813 19.5787C13.0926 18.5752 13.9085 17.7593 14.9121 17.248C15.5592 16.9182 16.2481 16.7868 16.9976 16.7256C17.7192 16.6666 18.605 16.6666 19.6783 16.6667ZM24.0008 32.6667C22.413 32.6675 20.7912 32.26 19.2 31.0667L20.8 28.9333C21.8755 29.74 22.9181 30.0006 23.9993 30C25.0805 29.9994 26.1254 29.7393 27.2 28.9333L28.8 31.0667C27.208 32.2607 25.5839 32.6658 24.0008 32.6667ZM19.3333 23.3333C18.2288 23.3333 17.3333 24.2288 17.3333 25.3333C17.3333 26.4379 18.2288 27.3333 19.3333 27.3333C20.4379 27.3333 21.3333 26.4379 21.3333 25.3333C21.3333 24.2288 20.4379 23.3333 19.3333 23.3333ZM26.6667 25.3333C26.6667 24.2288 27.5621 23.3333 28.6667 23.3333C29.7712 23.3333 30.6667 24.2288 30.6667 25.3333C30.6667 26.4379 29.7712 27.3333 28.6667 27.3333C27.5621 27.3333 26.6667 26.4379 26.6667 25.3333Z" fill="#FAFAFA"/>
</svg>
